HIERARCHY
ROOT Hips
{
 OFFSET 0.000000 0.000000 0.000000
 CHANNELS 6 Xposition Yposition Zposition Yrotation Xrotation Zrotation
 JOINT Chest
 {
  OFFSET 0.000000 9.585900 0.002600
  CHANNELS 3 Yrotation Xrotation Zrotation
  JOINT Chest2
  {
   OFFSET 0.000000 9.601200 -0.005300
   CHANNELS 3 Yrotation Xrotation Zrotation
   JOINT Chest3
   {
    OFFSET 0.000000 9.561800 0.000000
    CHANNELS 3 Yrotation Xrotation Zrotation
    JOINT Chest4
    {
     OFFSET 0.000000 9.552100 0.000000
     CHANNELS 3 Yrotation Xrotation Zrotation
     JOINT Neck
     {
      OFFSET 0.000000 14.453000 0.000000
      CHANNELS 3 Yrotation Xrotation Zrotation
      JOINT Head
      {
       OFFSET 0.000000 8.936500 -0.011300
       CHANNELS 3 Yrotation Xrotation Zrotation
       End Site
       {
        OFFSET 0.000000 17.073600 -0.006000
       }
      }
     }
     JOINT RightCollar
     {
      OFFSET -2.921100 9.558500 0.000000
      CHANNELS 3 Yrotation Xrotation Zrotation
      JOINT RightShoulder
      {
       OFFSET -13.519700 0.000000 0.000000
       CHANNELS 3 Yrotation Xrotation Zrotation
       JOINT RightElbow
       {
        OFFSET 0.000000 -29.696600 0.000000
        CHANNELS 3 Yrotation Xrotation Zrotation
        JOINT RightWrist
        {
         OFFSET 0.000000 -24.004700 0.000000
         CHANNELS 3 Yrotation Xrotation Zrotation
         End Site
         {
          OFFSET 0.000000 -17.728500 0.000000
         }
        }
       }
      }
     }
     JOINT LeftCollar
     {
      OFFSET 2.921100 9.558500 0.000000
      CHANNELS 3 Yrotation Xrotation Zrotation
      JOINT LeftShoulder
      {
       OFFSET 13.519700 0.000000 0.000000
       CHANNELS 3 Yrotation Xrotation Zrotation
       JOINT LeftElbow
       {
        OFFSET 0.000000 -29.696600 0.000000
        CHANNELS 3 Yrotation Xrotation Zrotation
        JOINT LeftWrist
        {
         OFFSET 0.000000 -24.004700 0.000000
         CHANNELS 3 Yrotation Xrotation Zrotation
         End Site
         {
          OFFSET 0.000000 -17.728500 0.000000
         }
        }
       }
      }
     }
    }
   }
  }
 }
 JOINT RightHip
 {
  OFFSET -7.771700 -0.012900 -0.001300
  CHANNELS 3 Yrotation Xrotation Zrotation
  JOINT RightKnee
  {
   OFFSET 0.000000 -40.869800 0.001200
   CHANNELS 3 Yrotation Xrotation Zrotation
   JOINT RightAnkle
   {
    OFFSET 0.000000 -39.717900 0.002100
    CHANNELS 3 Yrotation Xrotation Zrotation
    JOINT RightToe
    {
     OFFSET 0.000000 -4.965400 11.033500
     CHANNELS 3 Yrotation Xrotation Zrotation
     End Site
     {
      OFFSET 0.000000 -1.423100 5.872300
     }
    }
   }
  }
 }
 JOINT LeftHip
 {
  OFFSET 7.771700 -0.012900 -0.001300
  CHANNELS 3 Yrotation Xrotation Zrotation
  JOINT LeftKnee
  {
   OFFSET 0.000000 -40.869800 0.001200
   CHANNELS 3 Yrotation Xrotation Zrotation
   JOINT LeftAnkle
   {
    OFFSET 0.000000 -39.717900 0.002100
    CHANNELS 3 Yrotation Xrotation Zrotation
    JOINT LeftToe
    {
     OFFSET 0.000000 -4.965400 11.033500
     CHANNELS 3 Yrotation Xrotation Zrotation
     End Site
     {
      OFFSET 0.000000 -1.423100 5.872300
     }
    }
   }
  }
 }
}
MOTION
Frames: 9
Frame Time: 0.008333
-104.286426 49.259521 21.295597 176.513383 -29.471021 -3.487881 -0.029774 17.476920 2.046486 0.029182 1.873890 0.171302 0.001253 3.144413 0.283934 0.159370 15.358749 1.416667 5.740118 18.277058 -1.145780 10.855616 -1.671562 -3.891699 -2.746354 -3.510709 -3.972666 6.331588 -7.156101 -11.114534 -36.853409 -46.452022 87.728753 2.619967 2.732897 -14.964842 -0.094321 -3.072597 2.961555 -7.275090 -1.707864 14.286373 75.472816 -71.911854 -113.177410 4.692361 8.036056 8.727422 -7.964338 -54.447392 -7.329379 -139.530784 80.092639 -126.538540 -30.286203 -4.198365 -4.797756 -0.361252 -13.460854 1.459993 -13.719918 -56.953103 19.691805 -74.766704 65.469625 -80.115146 30.621238 6.304910 15.946920 0.176010 -0.566103 0.087598
-104.291486 49.263761 21.306018 176.489782 -29.482785 -3.497271 -0.032636 17.505141 2.059776 0.002961 1.894162 0.171919 0.021912 3.135867 0.283522 0.148594 15.372184 1.421579 5.733066 18.224678 -1.137400 10.839735 -1.762664 -3.882482 -2.739514 -3.516324 -3.971007 6.353142 -7.174470 -11.127026 -36.877703 -46.393794 87.725837 2.616156 2.731365 -15.018027 -0.068099 -3.096784 2.945386 -7.274177 -1.704978 14.282711 75.369876 -71.904610 -113.092480 4.679720 8.014420 8.747970 -7.916475 -54.444165 -7.312167 -139.421218 80.091736 -126.422857 -30.306781 -4.167710 -4.804841 -0.344112 -13.457353 1.471034 -13.721815 -56.939514 19.720476 -74.757860 65.470208 -80.104049 30.617655 6.296047 15.946467 0.176995 -0.553715 0.087483
-104.295966 49.267264 21.316282 176.485350 -29.492292 -3.512411 -0.048213 17.527096 2.070851 -0.010654 1.907109 0.173552 -0.005172 3.162832 0.287707 0.128917 15.397932 1.427056 5.757609 18.139805 -1.153911 10.818206 -1.847537 -3.873004 -2.674997 -3.575685 -3.996075 6.268855 -7.070066 -11.065757 -36.869524 -46.469731 87.768902 2.613834 2.725260 -15.069722 -0.004931 -3.157028 2.909876 -7.323030 -1.628338 14.271844 75.526193 -71.921293 -113.204865 4.675560 8.025579 8.759940 -7.917724 -54.437735 -7.288768 -139.363276 80.092976 -126.367964 -30.288032 -4.161237 -4.832301 -0.361104 -13.444300 1.497610 -13.734490 -56.930059 19.746448 -74.734808 65.465886 -80.078602 30.615479 6.303869 15.948727 0.178569 -0.550008 0.088054
-104.299174 49.268276 21.329527 176.457718 -29.478678 -3.518331 -0.028322 17.516228 2.088608 -0.028930 1.922693 0.175741 -0.000782 3.163215 0.287330 0.121515 15.408332 1.428269 5.734746 18.100738 -1.140561 10.799663 -1.926781 -3.866497 -2.692227 -3.560863 -3.986213 6.251637 -7.033389 -11.044136 -36.879656 -46.500765 87.798679 2.612457 2.720047 -15.109045 -0.067762 -3.117613 2.910815 -7.258785 -1.645259 14.260924 75.566860 -71.922738 -113.249793 4.673905 8.040284 8.787085 -7.848692 -54.474004 -7.277834 -139.294399 80.059221 -126.278676 -30.296267 -4.135502 -4.850911 -0.337531 -13.447083 1.520599 -13.745572 -56.940905 19.787950 -74.698641 65.463823 -80.032217 30.607609 6.321074 15.939405 0.184229 -0.545897 0.092229
-104.308796 49.270457 21.337719 176.413935 -29.490296 -3.470619 -0.021141 17.542491 2.056046 -0.029251 1.925004 0.177384 0.015509 3.151481 0.284040 0.093561 15.441236 1.434233 5.719995 18.056545 -1.134876 10.775245 -1.999770 -3.858564 -2.703753 -3.552524 -3.982559 6.254346 -7.021493 -11.034971 -36.897199 -46.508701 87.819132 2.610973 2.715776 -15.128900 -0.074943 -3.120883 2.899484 -7.245486 -1.630735 14.249990 75.585126 -71.915582 -113.280083 4.636823 8.093967 8.809514 -7.728095 -54.486736 -7.343291 -139.256232 80.044912 -126.243571 -30.318853 -4.090161 -4.860784 -0.320090 -13.466579 1.543772 -13.663728 -56.936775 19.733948 -74.680110 65.466794 -80.010121 30.595644 6.258755 15.938592 0.175824 -0.477556 0.089791
-104.308760 49.273631 21.344474 176.406928 -29.508942 -3.493944 -0.048725 17.588705 2.078020 -0.008874 1.915551 0.174430 0.011072 3.159378 0.284130 0.077225 15.463762 1.435896 5.710910 18.009062 -1.133519 10.750093 -2.065424 -3.852647 -2.698021 -3.560369 -3.986219 6.248638 -7.007378 -11.024772 -36.911844 -46.513031 87.833836 2.623971 2.714146 -15.126403 -0.072222 -3.129969 2.886468 -7.236571 -1.620782 14.238386 75.699365 -71.932033 -113.366331 4.623970 8.119769 8.810057 -7.708025 -54.485683 -7.321754 -139.220665 80.029472 -126.216281 -30.273656 -4.044476 -4.852362 -0.361085 -13.476498 1.546865 -13.695661 -56.913239 19.777172 -74.676529 65.468785 -80.008396 30.599129 6.314025 15.932289 0.188428 -0.531644 0.093633
-104.313113 49.276091 21.350482 176.403367 -29.522413 -3.489446 -0.066009 17.613677 2.071529 -0.009914 1.919427 0.174561 0.009287 3.168942 0.287145 0.074804 15.465587 1.431296 5.650149 17.984747 -1.103704 10.764303 -2.118972 -3.876994 -2.692847 -3.567102 -3.988175 6.236128 -6.988981 -11.015047 -36.929371 -46.502450 87.839913 2.664569 2.721890 -15.101800 -0.083160 -3.118785 2.881848 -7.230375 -1.614977 14.230303 75.804951 -71.946634 -113.444642 4.615690 8.125633 8.812269 -7.674041 -54.484751 -7.337801 -139.223870 80.028627 -126.235026 -30.260871 -4.015193 -4.842347 -0.370230 -13.480255 1.548831 -13.695801 -56.897531 19.774753 -74.655036 65.471390 -79.985589 30.582844 6.313457 15.920907 0.201608 -0.520704 0.094874
-104.319037 49.278115 21.356110 176.384416 -29.530967 -3.465975 -0.073006 17.630739 2.052572 -0.010844 1.923153 0.174552 0.005443 3.176518 0.287934 0.089778 15.453856 1.427371 5.619024 17.980007 -1.090404 10.769763 -2.146697 -3.885352 -2.724083 -3.526754 -3.974837 6.263762 -7.025971 -11.028592 -36.952106 -46.470273 87.828899 2.657232 2.719247 -15.081850 -0.091498 -3.109173 2.880797 -7.227356 -1.612487 14.227812 75.846562 -71.948123 -113.481097 4.593898 8.149526 8.813947 -7.611660 -54.493364 -7.367024 -139.222670 80.051756 -126.268379 -30.267288 -3.952978 -4.817241 -0.394549 -13.492718 1.546328 -13.694608 -56.884799 19.766064 -74.625206 65.472663 -79.961369 30.581209 6.318377 15.905091 0.209058 -0.516111 0.094124
-104.322619 49.280703 21.360660 176.355554 -29.541715 -3.450432 -0.066424 17.646333 2.047914 -0.011728 1.926534 0.174491 -0.016277 3.199989 0.289776 0.100948 15.453738 1.419796 5.607391 17.954237 -1.085492 10.774504 -2.173508 -3.893034 -2.724634 -3.512510 -3.963726 6.247623 -7.032194 -11.027743 -36.956876 -46.482831 87.828488 2.630845 2.705309 -15.046088 -0.077464 -3.123791 2.874495 -7.223909 -1.609979 14.226974 75.873986 -71.953411 -113.508211 4.558225 8.184222 8.800525 -7.541542 -54.499634 -7.385158 -139.200770 80.045992 -126.251007 -30.271954 -3.917674 -4.814064 -0.398242 -13.500342 1.554838 -13.685398 -56.872163 19.770972 -74.610414 65.475217 -79.952232 30.586163 6.320264 15.902121 0.196793 -0.520181 0.092357
